<?xml version="1.0" encoding="UTF-8" standalone="no"?>
<!-- Created with Inkscape (http://www.inkscape.org/) -->

<svg
   xmlns:dc="http://purl.org/dc/elements/1.1/"
   xmlns:cc="http://creativecommons.org/ns#"
   xmlns:rdf="http://www.w3.org/1999/02/22-rdf-syntax-ns#"
   xmlns:svg="http://www.w3.org/2000/svg"
   xmlns="http://www.w3.org/2000/svg"
   xmlns:sodipodi="http://sodipodi.sourceforge.net/DTD/sodipodi-0.dtd"
   xmlns:inkscape="http://www.inkscape.org/namespaces/inkscape"
   width="210mm"
   height="297mm"
   viewBox="0 0 210 297"
   version="1.1"
   id="svg8"
   inkscape:version="0.92.1 r15371"
   sodipodi:docname="polys.svg">
  <defs
     id="defs2" />
  <sodipodi:namedview
     id="base"
     pagecolor="#ffffff"
     bordercolor="#666666"
     borderopacity="1.0"
     inkscape:pageopacity="0.0"
     inkscape:pageshadow="2"
     inkscape:zoom="0.7"
     inkscape:cx="410.973"
     inkscape:cy="759.23978"
     inkscape:document-units="mm"
     inkscape:current-layer="layer1"
     showgrid="false"
     inkscape:window-width="1920"
     inkscape:window-height="971"
     inkscape:window-x="0"
     inkscape:window-y="31"
     inkscape:window-maximized="1" />
  <metadata
     id="metadata5">
    <rdf:RDF>
      <cc:Work
         rdf:about="">
        <dc:format>image/svg+xml</dc:format>
        <dc:type
           rdf:resource="http://purl.org/dc/dcmitype/StillImage" />
        <dc:title></dc:title>
      </cc:Work>
    </rdf:RDF>
  </metadata>
  <g
     inkscape:label="Layer 1"
     inkscape:groupmode="layer"
     id="layer1">
    <path
       sodipodi:type="star"
       id="path3680"
       sodipodi:sides="7"
       sodipodi:cx="46.113091"
       sodipodi:cy="96.672623"
       sodipodi:r1="27.107368"
       sodipodi:r2="84.710526"
       sodipodi:arg1="0.99516933"
       sodipodi:arg2="1.4439683"
       inkscape:flatsided="false"
       inkscape:rounded="2.12"
       inkscape:randomized="0"
       d="M 60.869281,119.41167 C -48.365301,190.29794 186.00134,164.23155 56.82798,180.70276 -72.345375,197.17398 161.06308,163.59321 37.535322,122.38704 -85.992442,81.180871 80.512291,248.16396 -12.903693,157.4418 -106.31968,66.719634 65.462617,228.26845 20.660597,105.99893 -24.141423,-16.270591 -50.880054,218.0203 -38.194525,88.420402 -25.508996,-41.179497 -44.708438,193.84935 22.95212,82.58792 90.612678,-28.673509 -109.23458,96.49937 -2.1648332e-6,25.6131 109.23458,-45.27317 -86.48903,86.25419 42.684325,69.782978 171.85768,53.311766 -50.609145,-24.8911 72.91862,16.315067 196.44638,57.521234 -28.41752,-13.495676 64.998461,77.226487 158.41444,167.94865 80.850109,-54.741607 125.65213,67.527913 170.45415,189.79743 85.777059,-30.286566 73.091528,99.313333 60.405996,228.91323 186.15168,29.425889 118.49112,140.68732 50.830567,251.94875 170.10386,48.525403 60.869281,119.41167 Z"
       inkscape:transform-center-x="-0.46012368"
       inkscape:transform-center-y="-2.0492789"
       style="stroke-width:0.26458332;fill:#ffd5d5"
       transform="matrix(0.33374514,0,0,0.30284672,28.786988,4.2566071)"
       inkscape:export-filename="/home/brian/img/img 1.png"
       inkscape:export-xdpi="96"
       inkscape:export-ydpi="96" />
    <path
       sodipodi:type="star"
       id="path3680-3"
       sodipodi:sides="7"
       sodipodi:cx="46.113091"
       sodipodi:cy="96.672623"
       sodipodi:r1="27.107368"
       sodipodi:r2="84.710526"
       sodipodi:arg1="0.99516933"
       sodipodi:arg2="1.4439683"
       inkscape:flatsided="false"
       inkscape:rounded="2.12"
       inkscape:randomized="0"
       d="M 60.869281,119.41167 C -48.365301,190.29794 186.00134,164.23155 56.82798,180.70276 -72.345375,197.17398 161.06308,163.59321 37.535322,122.38704 -85.992442,81.180871 80.512291,248.16396 -12.903693,157.4418 -106.31968,66.719634 65.462617,228.26845 20.660597,105.99893 -24.141423,-16.270591 -50.880054,218.0203 -38.194525,88.420402 -25.508996,-41.179497 -44.708438,193.84935 22.95212,82.58792 90.612678,-28.673509 -109.23458,96.49937 -2.1648332e-6,25.6131 109.23458,-45.27317 -86.48903,86.25419 42.684325,69.782978 171.85768,53.311766 -50.609145,-24.8911 72.91862,16.315067 196.44638,57.521234 -28.41752,-13.495676 64.998461,77.226487 158.41444,167.94865 80.850109,-54.741607 125.65213,67.527913 170.45415,189.79743 85.777059,-30.286566 73.091528,99.313333 60.405996,228.91323 186.15168,29.425889 118.49112,140.68732 50.830567,251.94875 170.10386,48.525403 60.869281,119.41167 Z"
       inkscape:transform-center-x="-0.46012306"
       inkscape:transform-center-y="-2.049279"
       style="stroke-width:0.26458332;fill:#ffaaaa"
       transform="matrix(0.33374515,0,0,0.30284671,89.923756,2.9168776)"
       inkscape:export-filename="/home/brian/img/img 2.png"
       inkscape:export-xdpi="96"
       inkscape:export-ydpi="96" />
    <path
       sodipodi:type="star"
       id="path3680-6"
       sodipodi:sides="7"
       sodipodi:cx="46.113091"
       sodipodi:cy="96.672623"
       sodipodi:r1="27.107368"
       sodipodi:r2="84.710526"
       sodipodi:arg1="0.99516933"
       sodipodi:arg2="1.4439683"
       inkscape:flatsided="false"
       inkscape:rounded="2.12"
       inkscape:randomized="0"
       d="M 60.869281,119.41167 C -48.365301,190.29794 186.00134,164.23155 56.82798,180.70276 -72.345375,197.17398 161.06308,163.59321 37.535322,122.38704 -85.992442,81.180871 80.512291,248.16396 -12.903693,157.4418 -106.31968,66.719634 65.462617,228.26845 20.660597,105.99893 -24.141423,-16.270591 -50.880054,218.0203 -38.194525,88.420402 -25.508996,-41.179497 -44.708438,193.84935 22.95212,82.58792 90.612678,-28.673509 -109.23458,96.49937 -2.1648332e-6,25.6131 109.23458,-45.27317 -86.48903,86.25419 42.684325,69.782978 171.85768,53.311766 -50.609145,-24.8911 72.91862,16.315067 196.44638,57.521234 -28.41752,-13.495676 64.998461,77.226487 158.41444,167.94865 80.850109,-54.741607 125.65213,67.527913 170.45415,189.79743 85.777059,-30.286566 73.091528,99.313333 60.405996,228.91323 186.15168,29.425889 118.49112,140.68732 50.830567,251.94875 170.10386,48.525403 60.869281,119.41167 Z"
       inkscape:transform-center-x="-0.46012678"
       inkscape:transform-center-y="-2.049279"
       style="stroke-width:0.26458332;fill:#ff8080"
       transform="matrix(0.33374515,0,0,0.30284671,150.77929,5.3235349)"
       inkscape:export-filename="/home/brian/img/img 3.png"
       inkscape:export-xdpi="96"
       inkscape:export-ydpi="96" />
    <path
       sodipodi:type="star"
       id="path3680-7"
       sodipodi:sides="7"
       sodipodi:cx="46.113091"
       sodipodi:cy="96.672623"
       sodipodi:r1="27.107368"
       sodipodi:r2="84.710526"
       sodipodi:arg1="0.99516933"
       sodipodi:arg2="1.4439683"
       inkscape:flatsided="false"
       inkscape:rounded="2.12"
       inkscape:randomized="0"
       d="M 60.869281,119.41167 C -48.365301,190.29794 186.00134,164.23155 56.82798,180.70276 -72.345375,197.17398 161.06308,163.59321 37.535322,122.38704 -85.992442,81.180871 80.512291,248.16396 -12.903693,157.4418 -106.31968,66.719634 65.462617,228.26845 20.660597,105.99893 -24.141423,-16.270591 -50.880054,218.0203 -38.194525,88.420402 -25.508996,-41.179497 -44.708438,193.84935 22.95212,82.58792 90.612678,-28.673509 -109.23458,96.49937 -2.1648332e-6,25.6131 109.23458,-45.27317 -86.48903,86.25419 42.684325,69.782978 171.85768,53.311766 -50.609145,-24.8911 72.91862,16.315067 196.44638,57.521234 -28.41752,-13.495676 64.998461,77.226487 158.41444,167.94865 80.850109,-54.741607 125.65213,67.527913 170.45415,189.79743 85.777059,-30.286566 73.091528,99.313333 60.405996,228.91323 186.15168,29.425889 118.49112,140.68732 50.830567,251.94875 170.10386,48.525403 60.869281,119.41167 Z"
       inkscape:transform-center-x="-0.46012355"
       inkscape:transform-center-y="-2.0492785"
       style="stroke-width:0.26458332;fill:#ff5555"
       transform="matrix(0.33374515,0,0,0.30284671,29.255145,60.285974)"
       inkscape:export-filename="/home/brian/img/img 4.png"
       inkscape:export-xdpi="96"
       inkscape:export-ydpi="96" />
    <path
       sodipodi:type="star"
       id="path3680-3-5"
       sodipodi:sides="7"
       sodipodi:cx="46.113091"
       sodipodi:cy="96.672623"
       sodipodi:r1="27.107368"
       sodipodi:r2="84.710526"
       sodipodi:arg1="0.99516933"
       sodipodi:arg2="1.4439683"
       inkscape:flatsided="false"
       inkscape:rounded="2.12"
       inkscape:randomized="0"
       d="M 60.869281,119.41167 C -48.365301,190.29794 186.00134,164.23155 56.82798,180.70276 -72.345375,197.17398 161.06308,163.59321 37.535322,122.38704 -85.992442,81.180871 80.512291,248.16396 -12.903693,157.4418 -106.31968,66.719634 65.462617,228.26845 20.660597,105.99893 -24.141423,-16.270591 -50.880054,218.0203 -38.194525,88.420402 -25.508996,-41.179497 -44.708438,193.84935 22.95212,82.58792 90.612678,-28.673509 -109.23458,96.49937 -2.1648332e-6,25.6131 109.23458,-45.27317 -86.48903,86.25419 42.684325,69.782978 171.85768,53.311766 -50.609145,-24.8911 72.91862,16.315067 196.44638,57.521234 -28.41752,-13.495676 64.998461,77.226487 158.41444,167.94865 80.850109,-54.741607 125.65213,67.527913 170.45415,189.79743 85.777059,-30.286566 73.091528,99.313333 60.405996,228.91323 186.15168,29.425889 118.49112,140.68732 50.830567,251.94875 170.10386,48.525403 60.869281,119.41167 Z"
       inkscape:transform-center-x="-0.46012311"
       inkscape:transform-center-y="-2.0492792"
       style="stroke-width:0.26458332;fill:#ff2a2a"
       transform="matrix(0.33374515,0,0,0.30284671,90.391915,58.946241)"
       inkscape:export-filename="/home/brian/img/img 5.png"
       inkscape:export-xdpi="96"
       inkscape:export-ydpi="96" />
    <path
       sodipodi:type="star"
       id="path3680-6-3"
       sodipodi:sides="7"
       sodipodi:cx="46.113091"
       sodipodi:cy="96.672623"
       sodipodi:r1="27.107368"
       sodipodi:r2="84.710526"
       sodipodi:arg1="0.99516933"
       sodipodi:arg2="1.4439683"
       inkscape:flatsided="false"
       inkscape:rounded="2.12"
       inkscape:randomized="0"
       d="M 60.869281,119.41167 C -48.365301,190.29794 186.00134,164.23155 56.82798,180.70276 -72.345375,197.17398 161.06308,163.59321 37.535322,122.38704 -85.992442,81.180871 80.512291,248.16396 -12.903693,157.4418 -106.31968,66.719634 65.462617,228.26845 20.660597,105.99893 -24.141423,-16.270591 -50.880054,218.0203 -38.194525,88.420402 -25.508996,-41.179497 -44.708438,193.84935 22.95212,82.58792 90.612678,-28.673509 -109.23458,96.49937 -2.1648332e-6,25.6131 109.23458,-45.27317 -86.48903,86.25419 42.684325,69.782978 171.85768,53.311766 -50.609145,-24.8911 72.91862,16.315067 196.44638,57.521234 -28.41752,-13.495676 64.998461,77.226487 158.41444,167.94865 80.850109,-54.741607 125.65213,67.527913 170.45415,189.79743 85.777059,-30.286566 73.091528,99.313333 60.405996,228.91323 186.15168,29.425889 118.49112,140.68732 50.830567,251.94875 170.10386,48.525403 60.869281,119.41167 Z"
       inkscape:transform-center-x="-0.46012607"
       inkscape:transform-center-y="-2.0492792"
       style="stroke-width:0.26458332;fill:#d40000"
       transform="matrix(0.33374515,0,0,0.30284671,151.24745,61.352902)"
       inkscape:export-filename="/home/brian/img/img 6.png"
       inkscape:export-xdpi="96"
       inkscape:export-ydpi="96" />
    <path
       sodipodi:type="star"
       id="path3680-5"
       sodipodi:sides="7"
       sodipodi:cx="46.113091"
       sodipodi:cy="96.672623"
       sodipodi:r1="27.107368"
       sodipodi:r2="84.710526"
       sodipodi:arg1="0.99516933"
       sodipodi:arg2="1.4439683"
       inkscape:flatsided="false"
       inkscape:rounded="2.12"
       inkscape:randomized="0"
       d="M 60.869281,119.41167 C -48.365301,190.29794 186.00134,164.23155 56.82798,180.70276 -72.345375,197.17398 161.06308,163.59321 37.535322,122.38704 -85.992442,81.180871 80.512291,248.16396 -12.903693,157.4418 -106.31968,66.719634 65.462617,228.26845 20.660597,105.99893 -24.141423,-16.270591 -50.880054,218.0203 -38.194525,88.420402 -25.508996,-41.179497 -44.708438,193.84935 22.95212,82.58792 90.612678,-28.673509 -109.23458,96.49937 -2.1648332e-6,25.6131 109.23458,-45.27317 -86.48903,86.25419 42.684325,69.782978 171.85768,53.311766 -50.609145,-24.8911 72.91862,16.315067 196.44638,57.521234 -28.41752,-13.495676 64.998461,77.226487 158.41444,167.94865 80.850109,-54.741607 125.65213,67.527913 170.45415,189.79743 85.777059,-30.286566 73.091528,99.313333 60.405996,228.91323 186.15168,29.425889 118.49112,140.68732 50.830567,251.94875 170.10386,48.525403 60.869281,119.41167 Z"
       inkscape:transform-center-x="-0.46012295"
       inkscape:transform-center-y="-2.0492757"
       style="stroke-width:0.26458332;fill:#aa0000"
       transform="matrix(0.33374515,0,0,0.30284671,30.916587,118.14593)"
       inkscape:export-filename="/home/brian/img/img 7.png"
       inkscape:export-xdpi="96"
       inkscape:export-ydpi="96" />
    <path
       sodipodi:type="star"
       id="path3680-3-6"
       sodipodi:sides="7"
       sodipodi:cx="46.113091"
       sodipodi:cy="96.672623"
       sodipodi:r1="27.107368"
       sodipodi:r2="84.710526"
       sodipodi:arg1="0.99516933"
       sodipodi:arg2="1.4439683"
       inkscape:flatsided="false"
       inkscape:rounded="2.12"
       inkscape:randomized="0"
       d="M 60.869281,119.41167 C -48.365301,190.29794 186.00134,164.23155 56.82798,180.70276 -72.345375,197.17398 161.06308,163.59321 37.535322,122.38704 -85.992442,81.180871 80.512291,248.16396 -12.903693,157.4418 -106.31968,66.719634 65.462617,228.26845 20.660597,105.99893 -24.141423,-16.270591 -50.880054,218.0203 -38.194525,88.420402 -25.508996,-41.179497 -44.708438,193.84935 22.95212,82.58792 90.612678,-28.673509 -109.23458,96.49937 -2.1648332e-6,25.6131 109.23458,-45.27317 -86.48903,86.25419 42.684325,69.782978 171.85768,53.311766 -50.609145,-24.8911 72.91862,16.315067 196.44638,57.521234 -28.41752,-13.495676 64.998461,77.226487 158.41444,167.94865 80.850109,-54.741607 125.65213,67.527913 170.45415,189.79743 85.777059,-30.286566 73.091528,99.313333 60.405996,228.91323 186.15168,29.425889 118.49112,140.68732 50.830567,251.94875 170.10386,48.525403 60.869281,119.41167 Z"
       inkscape:transform-center-x="-0.46012351"
       inkscape:transform-center-y="-2.0492835"
       style="stroke-width:0.26458332;fill:#550000"
       transform="matrix(0.33374515,0,0,0.30284671,92.053358,116.80619)"
       inkscape:export-filename="/home/brian/img/img 8.png"
       inkscape:export-xdpi="96"
       inkscape:export-ydpi="96" />
    <path
       sodipodi:type="star"
       id="path3680-6-2"
       sodipodi:sides="7"
       sodipodi:cx="46.113091"
       sodipodi:cy="96.672623"
       sodipodi:r1="27.107368"
       sodipodi:r2="84.710526"
       sodipodi:arg1="0.99516933"
       sodipodi:arg2="1.4439683"
       inkscape:flatsided="false"
       inkscape:rounded="2.12"
       inkscape:randomized="0"
       d="M 60.869281,119.41167 C -48.365301,190.29794 186.00134,164.23155 56.82798,180.70276 -72.345375,197.17398 161.06308,163.59321 37.535322,122.38704 -85.992442,81.180871 80.512291,248.16396 -12.903693,157.4418 -106.31968,66.719634 65.462617,228.26845 20.660597,105.99893 -24.141423,-16.270591 -50.880054,218.0203 -38.194525,88.420402 -25.508996,-41.179497 -44.708438,193.84935 22.95212,82.58792 90.612678,-28.673509 -109.23458,96.49937 -2.1648332e-6,25.6131 109.23458,-45.27317 -86.48903,86.25419 42.684325,69.782978 171.85768,53.311766 -50.609145,-24.8911 72.91862,16.315067 196.44638,57.521234 -28.41752,-13.495676 64.998461,77.226487 158.41444,167.94865 80.850109,-54.741607 125.65213,67.527913 170.45415,189.79743 85.777059,-30.286566 73.091528,99.313333 60.405996,228.91323 186.15168,29.425889 118.49112,140.68732 50.830567,251.94875 170.10386,48.525403 60.869281,119.41167 Z"
       inkscape:transform-center-x="-0.46012435"
       inkscape:transform-center-y="-2.0492745"
       style="stroke-width:0.26458332;fill:#2b0000"
       transform="matrix(0.33374515,0,0,0.30284671,152.90889,119.21286)"
       inkscape:export-filename="/home/brian/img/img 9.png"
       inkscape:export-xdpi="96"
       inkscape:export-ydpi="96" />
  </g>
</svg>
